<?xml version="1.0" encoding="UTF-8" standalone="no"?>
<svg
   xmlns:dc="http://purl.org/dc/elements/1.1/"
   xmlns:cc="http://creativecommons.org/ns#"
   xmlns:rdf="http://www.w3.org/1999/02/22-rdf-syntax-ns#"
   xmlns:svg="http://www.w3.org/2000/svg"
   xmlns="http://www.w3.org/2000/svg"
   xmlns:sodipodi="http://sodipodi.sourceforge.net/DTD/sodipodi-0.dtd"
   xmlns:inkscape="http://www.inkscape.org/namespaces/inkscape"
   width="78.7239mm"
   height="61.201859mm"
   viewBox="0 0 78.723901 61.201858"
   version="1.1"
   id="svg997"
   inkscape:version="1.0.1 (3bc2e813f5, 2020-09-07)"
   sodipodi:docname="logo.svg">
  <defs
     id="defs991">
    <inkscape:path-effect
       effect="bend_path"
       id="path-effect992-9"
       is_visible="true"
       bendpath="m 88.999999,210.40001 c 1.552477,-3.2178 13.141561,-8.51689 15.400001,-4 0.9956,1.9912 -3.97054,6.81473 -0.8,8.39999 3.11303,1.55652 6.29526,-1.57905 9.4,-2.2 2.80376,-0.56075 2.81638,1.39727 5.2,1.00001"
       prop_scale="1"
       scale_y_rel="false"
       vertical="false"
       lpeversion="0"
       hide_knot="false" />
  </defs>
  <sodipodi:namedview
     id="base"
     pagecolor="#ffffff"
     bordercolor="#666666"
     borderopacity="1.0"
     inkscape:pageopacity="0.0"
     inkscape:pageshadow="2"
     inkscape:zoom="0.35"
     inkscape:cx="707.27593"
     inkscape:cy="-174.04977"
     inkscape:document-units="mm"
     inkscape:current-layer="layer1"
     showgrid="false"
     inkscape:window-width="1304"
     inkscape:window-height="745"
     inkscape:window-x="-8"
     inkscape:window-y="-8"
     inkscape:window-maximized="1"
     inkscape:document-rotation="0" />
  <metadata
     id="metadata994">
    <rdf:RDF>
      <cc:Work
         rdf:about="">
        <dc:format>image/svg+xml</dc:format>
        <dc:type
           rdf:resource="http://purl.org/dc/dcmitype/StillImage" />
        <dc:title />
      </cc:Work>
    </rdf:RDF>
  </metadata>
  <g
     inkscape:label="Camada 1"
     inkscape:groupmode="layer"
     id="layer1"
     transform="translate(223.64851,-204.03301)">
    <g
       transform="matrix(0.34962076,0,0,0.34962076,317.37388,541.99928)"
       id="g4718"
       inkscape:export-xdpi="96"
       inkscape:export-ydpi="96"
       style="stroke-width:4.22382">
      <path
         style="fill:#000000;fill-opacity:1;stroke:none;stroke-width:7.03265;stroke-linecap:butt;stroke-linejoin:miter;stroke-miterlimit:4;stroke-dasharray:none;stroke-opacity:1"
         d="m -1450.9484,-797.73246 c 0.2311,-3.91947 2.6386,-14.93352 5.1023,-20.12209 2.2449,-4.72764 2.691,-7.41352 8.2812,-15.64476 5.2398,-7.71512 8.7042,-12.19785 13.0504,-18.82628 18.9571,-28.91169 74.8716,-94.15524 102.2289,-114.33974 -19.423,21.51813 -42.0628,60.47979 -64.3644,82.94703 -17.6972,17.82857 -37.4426,33.23621 -47.3957,55.36499 0,0 0.5732,10.54077 -1.3263,11.77072 -6.3852,4.13431 -10.1381,8.56848 -15.5764,18.85013 z"
         id="path3914"
         inkscape:connector-curvature="0"
         sodipodi:nodetypes="cssscscsc" />
      <path
         style="fill:#000000;fill-rule:evenodd;stroke-width:0.45624"
         d="m 118.17814,213.60356 c 0.01,0.0616 -0.99398,0.39422 -2.50934,-0.40847 -0.65976,-0.34725 -1.59499,-0.57886 -2.61928,-0.34751 0,0 0,0 0,0 -1.67127,0.36301 -2.57113,1.08048 -4.61898,1.96947 -1.40962,0.63292 -3.30204,1.10475 -4.9931,0.30807 -0.74804,-0.37704 -1.26965,-1.15017 -1.28226,-2.02858 1e-5,0 0,0 0,0 0.0137,-0.91129 0.34462,-1.73742 0.68332,-2.49514 0.1653,-0.38045 0.34064,-0.75027 0.51066,-1.1177 0.19881,-0.42966 0.3891,-0.85349 0.5457,-1.28327 0.19421,-0.62476 0.41941,-1.23518 0.17148,-1.63359 -0.22941,-0.46791 -0.6236,-0.85522 -1.08294,-1.09932 -0.52104,-0.28152 -1.1358,-0.40038 -1.74601,-0.44565 -1.641217,-0.1178 -3.297173,0.31077 -4.701074,0.77092 -1.919705,0.6349 -3.466232,1.42306 -4.673539,2.17126 -2.100213,1.32311 -2.802574,2.4891 -2.87235,2.45596 -0.06978,-0.0331 0.573342,-1.41418 2.634011,-2.81944 1.192927,-0.82562 2.754719,-1.69423 4.709773,-2.39436 1.424539,-0.51441 3.148712,-0.98855 4.946969,-0.8942 0.67543,0.0341 1.38744,0.1714 2.04249,0.5066 0.59326,0.30785 1.09768,0.79906 1.40999,1.41457 0.34269,0.78274 0.1333,1.59516 -0.1302,2.22563 -0.16902,0.4632 -0.36673,0.90678 -0.56783,1.34222 -0.17199,0.37243 -0.34551,0.73689 -0.50534,1.10203 -0.32145,0.75621 -0.6347,1.4802 -0.63061,2.19787 0,0 1e-5,0 1e-5,0 -0.0211,0.56484 0.35526,1.12316 0.86287,1.37395 1.33513,0.71622 3.05711,0.28108 4.41312,-0.25883 1.97116,-0.81537 3.00814,-1.5384 4.7748,-1.86363 0,0 1e-5,0 1e-5,0 1.17259,-0.20806 2.19652,0.10591 2.89581,0.52988 1.38269,0.84188 2.32209,0.65964 2.33184,0.72126 z"
         id="path10-488"
         inkscape:connector-curvature="0"
         inkscape:path-effect="#path-effect992-9"
         inkscape:original-d="m 147.03273,61.615327 a 95.627968,0.37797629 0 0 1 -95.627966,0.377977 95.627968,0.37797629 0 0 1 -95.627976,-0.377977 95.627968,0.37797629 0 0 1 95.627976,-0.377976 95.627968,0.37797629 0 0 1 95.627966,0.377976 z"
         transform="matrix(3.3457989,0,0,3.3457989,-1845.1822,-1512.7822)" />
    </g>
  </g>
</svg>
